<mxfile host="65bd71144e">
    <diagram id="LpxPZm6qdVWCAlWoJ16L" name="Página-1">
        <mxGraphModel dx="1181" dy="662" grid="1" gridSize="10" guides="1" tooltips="1" connect="1" arrows="1" fold="1" page="1" pageScale="1" pageWidth="827" pageHeight="1169" math="0" shadow="0">
            <root>
                <mxCell id="0"/>
                <mxCell id="1" parent="0"/>
                <mxCell id="2" value="&lt;p style=&quot;margin:0px;margin-top:4px;text-align:center;&quot;&gt;&lt;i&gt;&amp;lt;&amp;lt;Interface&amp;gt;&amp;gt;&lt;/i&gt;&lt;br&gt;&lt;b&gt;IVisitor&amp;lt;T&amp;gt;&lt;/b&gt;&lt;/p&gt;&lt;hr size=&quot;1&quot;&gt;&lt;p style=&quot;margin:0px;margin-left:4px;&quot;&gt;&lt;span style=&quot;background-color: initial;&quot;&gt;&lt;br&gt;&lt;/span&gt;&lt;/p&gt;&lt;p style=&quot;margin:0px;margin-left:4px;&quot;&gt;&lt;span style=&quot;background-color: initial;&quot;&gt;+ Visit (IVisitable&amp;lt;T&amp;gt;)&lt;/span&gt;&lt;/p&gt;&lt;p style=&quot;margin:0px;margin-left:4px;&quot;&gt;&lt;br&gt;&lt;/p&gt;" style="verticalAlign=top;align=left;overflow=fill;fontSize=12;fontFamily=Helvetica;html=1;" vertex="1" parent="1">
                    <mxGeometry x="70" y="90" width="190" height="100" as="geometry"/>
                </mxCell>
                <mxCell id="3" value="&lt;p style=&quot;margin:0px;margin-top:4px;text-align:center;&quot;&gt;&lt;i&gt;&amp;lt;&amp;lt;Interface&amp;gt;&amp;gt;&lt;/i&gt;&lt;br&gt;&lt;b&gt;IVisitable&amp;lt;T&amp;gt;&lt;/b&gt;&lt;/p&gt;&lt;hr size=&quot;1&quot;&gt;&lt;p style=&quot;margin:0px;margin-left:4px;&quot;&gt;&lt;span style=&quot;background-color: initial;&quot;&gt;&lt;br&gt;&lt;/span&gt;&lt;/p&gt;&lt;p style=&quot;margin:0px;margin-left:4px;&quot;&gt;&lt;span style=&quot;background-color: initial;&quot;&gt;+ Accept (IVisitor&amp;lt;T&amp;gt;)&lt;/span&gt;&lt;/p&gt;&lt;p style=&quot;margin:0px;margin-left:4px;&quot;&gt;&lt;br&gt;&lt;/p&gt;" style="verticalAlign=top;align=left;overflow=fill;fontSize=12;fontFamily=Helvetica;html=1;" vertex="1" parent="1">
                    <mxGeometry x="410" y="90" width="190" height="100" as="geometry"/>
                </mxCell>
                <mxCell id="4" value="EdadSumarVisitor" style="swimlane;fontStyle=1;align=center;verticalAlign=top;childLayout=stackLayout;horizontal=1;startSize=26;horizontalStack=0;resizeParent=1;resizeParentMax=0;resizeLast=0;collapsible=1;marginBottom=0;" vertex="1" parent="1">
                    <mxGeometry x="50" y="320" width="160" height="86" as="geometry"/>
                </mxCell>
                <mxCell id="5" value="+ sumadorEdades: int" style="text;strokeColor=none;fillColor=none;align=left;verticalAlign=top;spacingLeft=4;spacingRight=4;overflow=hidden;rotatable=0;points=[[0,0.5],[1,0.5]];portConstraint=eastwest;" vertex="1" parent="4">
                    <mxGeometry y="26" width="160" height="26" as="geometry"/>
                </mxCell>
                <mxCell id="6" value="" style="line;strokeWidth=1;fillColor=none;align=left;verticalAlign=middle;spacingTop=-1;spacingLeft=3;spacingRight=3;rotatable=0;labelPosition=right;points=[];portConstraint=eastwest;strokeColor=inherit;" vertex="1" parent="4">
                    <mxGeometry y="52" width="160" height="8" as="geometry"/>
                </mxCell>
                <mxCell id="7" value="+ Visit(IVisitable&lt;T&gt;)" style="text;strokeColor=none;fillColor=none;align=left;verticalAlign=top;spacingLeft=4;spacingRight=4;overflow=hidden;rotatable=0;points=[[0,0.5],[1,0.5]];portConstraint=eastwest;" vertex="1" parent="4">
                    <mxGeometry y="60" width="160" height="26" as="geometry"/>
                </mxCell>
                <mxCell id="8" value="HijoMayorVisitor" style="swimlane;fontStyle=1;align=center;verticalAlign=top;childLayout=stackLayout;horizontal=1;startSize=26;horizontalStack=0;resizeParent=1;resizeParentMax=0;resizeLast=0;collapsible=1;marginBottom=0;" vertex="1" parent="1">
                    <mxGeometry x="320" y="320" width="160" height="86" as="geometry"/>
                </mxCell>
                <mxCell id="9" value="+ HijoMayor: int" style="text;strokeColor=none;fillColor=none;align=left;verticalAlign=top;spacingLeft=4;spacingRight=4;overflow=hidden;rotatable=0;points=[[0,0.5],[1,0.5]];portConstraint=eastwest;" vertex="1" parent="8">
                    <mxGeometry y="26" width="160" height="26" as="geometry"/>
                </mxCell>
                <mxCell id="10" value="" style="line;strokeWidth=1;fillColor=none;align=left;verticalAlign=middle;spacingTop=-1;spacingLeft=3;spacingRight=3;rotatable=0;labelPosition=right;points=[];portConstraint=eastwest;strokeColor=inherit;" vertex="1" parent="8">
                    <mxGeometry y="52" width="160" height="8" as="geometry"/>
                </mxCell>
                <mxCell id="11" value="+ Visit(IVisitable&lt;T&gt;)" style="text;strokeColor=none;fillColor=none;align=left;verticalAlign=top;spacingLeft=4;spacingRight=4;overflow=hidden;rotatable=0;points=[[0,0.5],[1,0.5]];portConstraint=eastwest;" vertex="1" parent="8">
                    <mxGeometry y="60" width="160" height="26" as="geometry"/>
                </mxCell>
                <mxCell id="12" value="Node&lt;T&gt;" style="swimlane;fontStyle=1;align=center;verticalAlign=top;childLayout=stackLayout;horizontal=1;startSize=26;horizontalStack=0;resizeParent=1;resizeParentMax=0;resizeLast=0;collapsible=1;marginBottom=0;" vertex="1" parent="1">
                    <mxGeometry x="70" y="470" width="160" height="140" as="geometry"/>
                </mxCell>
                <mxCell id="13" value="- elemento: T" style="text;strokeColor=none;fillColor=none;align=left;verticalAlign=top;spacingLeft=4;spacingRight=4;overflow=hidden;rotatable=0;points=[[0,0.5],[1,0.5]];portConstraint=eastwest;" vertex="1" parent="12">
                    <mxGeometry y="26" width="160" height="26" as="geometry"/>
                </mxCell>
                <mxCell id="14" value="" style="line;strokeWidth=1;fillColor=none;align=left;verticalAlign=middle;spacingTop=-1;spacingLeft=3;spacingRight=3;rotatable=0;labelPosition=right;points=[];portConstraint=eastwest;strokeColor=inherit;" vertex="1" parent="12">
                    <mxGeometry y="52" width="160" height="8" as="geometry"/>
                </mxCell>
                <mxCell id="15" value="+ Visit(IVisitable&lt;T&gt;&#10;+ AddChildren(Node&lt;T&gt;)&#10; + Accept(IVisitor&lt;T&gt;) &#10;+ Edad(): int" style="text;strokeColor=none;fillColor=none;align=left;verticalAlign=top;spacingLeft=4;spacingRight=4;overflow=hidden;rotatable=0;points=[[0,0.5],[1,0.5]];portConstraint=eastwest;" vertex="1" parent="12">
                    <mxGeometry y="60" width="160" height="80" as="geometry"/>
                </mxCell>
                <mxCell id="20" value="Classname" style="swimlane;fontStyle=1;align=center;verticalAlign=top;childLayout=stackLayout;horizontal=1;startSize=26;horizontalStack=0;resizeParent=1;resizeParentMax=0;resizeLast=0;collapsible=1;marginBottom=0;" vertex="1" parent="1">
                    <mxGeometry x="600" y="320" width="160" height="86" as="geometry"/>
                </mxCell>
                <mxCell id="21" value="+ NombreLargo: string" style="text;strokeColor=none;fillColor=none;align=left;verticalAlign=top;spacingLeft=4;spacingRight=4;overflow=hidden;rotatable=0;points=[[0,0.5],[1,0.5]];portConstraint=eastwest;" vertex="1" parent="20">
                    <mxGeometry y="26" width="160" height="26" as="geometry"/>
                </mxCell>
                <mxCell id="22" value="" style="line;strokeWidth=1;fillColor=none;align=left;verticalAlign=middle;spacingTop=-1;spacingLeft=3;spacingRight=3;rotatable=0;labelPosition=right;points=[];portConstraint=eastwest;strokeColor=inherit;" vertex="1" parent="20">
                    <mxGeometry y="52" width="160" height="8" as="geometry"/>
                </mxCell>
                <mxCell id="23" value="+ Visit(IVisitable&lt;T&gt;)" style="text;strokeColor=none;fillColor=none;align=left;verticalAlign=top;spacingLeft=4;spacingRight=4;overflow=hidden;rotatable=0;points=[[0,0.5],[1,0.5]];portConstraint=eastwest;" vertex="1" parent="20">
                    <mxGeometry y="60" width="160" height="26" as="geometry"/>
                </mxCell>
                <mxCell id="24" value="Persona" style="swimlane;fontStyle=1;align=center;verticalAlign=top;childLayout=stackLayout;horizontal=1;startSize=26;horizontalStack=0;resizeParent=1;resizeParentMax=0;resizeLast=0;collapsible=1;marginBottom=0;" vertex="1" parent="1">
                    <mxGeometry x="325" y="480" width="190" height="100" as="geometry"/>
                </mxCell>
                <mxCell id="25" value="+ Nombre: string       &#10;+ Edad: int" style="text;strokeColor=none;fillColor=none;align=left;verticalAlign=top;spacingLeft=4;spacingRight=4;overflow=hidden;rotatable=0;points=[[0,0.5],[1,0.5]];portConstraint=eastwest;" vertex="1" parent="24">
                    <mxGeometry y="26" width="190" height="34" as="geometry"/>
                </mxCell>
                <mxCell id="26" value="" style="line;strokeWidth=1;fillColor=none;align=left;verticalAlign=middle;spacingTop=-1;spacingLeft=3;spacingRight=3;rotatable=0;labelPosition=right;points=[];portConstraint=eastwest;strokeColor=inherit;" vertex="1" parent="24">
                    <mxGeometry y="60" width="190" height="8" as="geometry"/>
                </mxCell>
                <mxCell id="27" value="+ ObtenerLargoNombre(): int" style="text;strokeColor=none;fillColor=none;align=left;verticalAlign=top;spacingLeft=4;spacingRight=4;overflow=hidden;rotatable=0;points=[[0,0.5],[1,0.5]];portConstraint=eastwest;" vertex="1" parent="24">
                    <mxGeometry y="68" width="190" height="32" as="geometry"/>
                </mxCell>
                <mxCell id="29" value="Use" style="endArrow=open;endSize=12;dashed=1;html=1;exitX=1;exitY=0.5;exitDx=0;exitDy=0;entryX=0;entryY=0.5;entryDx=0;entryDy=0;" edge="1" parent="1" source="2" target="3">
                    <mxGeometry width="160" relative="1" as="geometry">
                        <mxPoint x="230" y="139.08999999999997" as="sourcePoint"/>
                        <mxPoint x="390" y="139.08999999999997" as="targetPoint"/>
                    </mxGeometry>
                </mxCell>
                <mxCell id="30" value="Use" style="endArrow=open;endSize=12;dashed=1;html=1;entryX=1;entryY=0.5;entryDx=0;entryDy=0;exitX=0;exitY=0.5;exitDx=0;exitDy=0;" edge="1" parent="1" source="3" target="2">
                    <mxGeometry width="160" relative="1" as="geometry">
                        <mxPoint x="280" y="220" as="sourcePoint"/>
                        <mxPoint x="440" y="220" as="targetPoint"/>
                    </mxGeometry>
                </mxCell>
                <mxCell id="31" value="" style="endArrow=none;html=1;edgeStyle=orthogonalEdgeStyle;exitX=1;exitY=0.5;exitDx=0;exitDy=0;entryX=0;entryY=0.5;entryDx=0;entryDy=0;" edge="1" parent="1" source="5" target="9">
                    <mxGeometry relative="1" as="geometry">
                        <mxPoint x="230" y="380" as="sourcePoint"/>
                        <mxPoint x="390" y="380" as="targetPoint"/>
                    </mxGeometry>
                </mxCell>
                <mxCell id="34" value="" style="endArrow=none;html=1;edgeStyle=orthogonalEdgeStyle;exitX=1;exitY=0.5;exitDx=0;exitDy=0;entryX=0;entryY=0.5;entryDx=0;entryDy=0;" edge="1" parent="1" source="9" target="21">
                    <mxGeometry relative="1" as="geometry">
                        <mxPoint x="480" y="370" as="sourcePoint"/>
                        <mxPoint x="640" y="370" as="targetPoint"/>
                    </mxGeometry>
                </mxCell>
                <mxCell id="40" value="" style="endArrow=open;endFill=1;endSize=12;html=1;exitX=1;exitY=0.5;exitDx=0;exitDy=0;entryX=0;entryY=0.5;entryDx=0;entryDy=0;" edge="1" parent="1" source="13" target="25">
                    <mxGeometry width="160" relative="1" as="geometry">
                        <mxPoint x="240" y="510" as="sourcePoint"/>
                        <mxPoint x="400" y="510" as="targetPoint"/>
                    </mxGeometry>
                </mxCell>
                <mxCell id="41" value="" style="endArrow=open;endFill=1;endSize=12;html=1;exitX=0.446;exitY=1.05;exitDx=0;exitDy=0;exitPerimeter=0;entryX=1;entryY=0.5;entryDx=0;entryDy=0;" edge="1" parent="1" source="15" target="3">
                    <mxGeometry width="160" relative="1" as="geometry">
                        <mxPoint x="250" y="660" as="sourcePoint"/>
                        <mxPoint x="800" y="460" as="targetPoint"/>
                        <Array as="points">
                            <mxPoint x="140" y="710"/>
                            <mxPoint x="800" y="710"/>
                            <mxPoint x="800" y="140"/>
                        </Array>
                    </mxGeometry>
                </mxCell>
            </root>
        </mxGraphModel>
    </diagram>
</mxfile>